<svg id="Слой_1" data-name="Слой 1" xmlns="http://www.w3.org/2000/svg" viewBox="0 0 472.53543 202.67717">
  <defs>
    <style>
      .cls-1 {
        fill: #f26800;
      }

      .cls-2 {
        fill: #d62828;
      }
    </style>
  </defs>
  <g>
    <g>
      <g>
        <path class="cls-1" d="M29.69285,120.85407H22.853l24.4082-69.69629H53.957Z"/>
        <path class="cls-1" d="M53.45931,86.00642,79.01937,96.51814l-1.87207,5.54394L46.0433,88.8863V83.12556l31.104-13.17578,1.87207,5.54394Z"/>
        <path class="cls-1" d="M102.23025,60.55506l-21.12,60.3h6.84l20.99-60.3Z"/>
        <path class="cls-2" d="M114.29867,75.49372l1.87207-5.54394,31.10351,13.17578V88.8863l-31.10351,13.17578-1.87207-5.54394,25.55957-10.51172Z"/>
        <polygon class="cls-1" points="127.972 51.155 125.772 57.425 85.64 57.425 86.98 53.565 87.82 51.155 127.972 51.155"/>
      </g>
      <g>
        <path class="cls-1" d="M228.44683,57.63845q-2.23242,2.4485-5.04,5.436-2.80811,2.98827-5.86719,6.12011-3.06151,3.13184-6.084,6.15577-3.02492,3.02416-5.68848,5.61621a64.23715,64.23715,0,0,1,6.55176,5.32763q3.457,3.1692,6.76855,6.76807,3.31054,3.60132,6.22754,7.34424a61.88887,61.88887,0,0,1,4.86035,7.12793h-8.208a71.03605,71.03605,0,0,0-4.96778-6.8042q-2.80811-3.41821-5.94043-6.55176-3.13184-3.13184-6.33594-5.7959a55.69887,55.69887,0,0,0-6.22851-4.53613v23.688h-6.9834v-49.896h6.9834V79.67068q2.51954-2.37671,5.54492-5.36426,3.02344-2.98682,5.97559-6.01221,2.95165-3.02343,5.58007-5.7959,2.62794-2.77074,4.42774-4.85986Z"/>
        <path class="cls-1" d="M263.9063,106.45437q-2.3042.57714-6.084,1.22412a52.26882,52.26882,0,0,1-8.748.648,18.55916,18.55916,0,0,1-7.27149-1.25977,11.71652,11.71652,0,0,1-4.752-3.56445,14.44993,14.44993,0,0,1-2.5918-5.43555,28.28216,28.28216,0,0,1-.792-6.94824V70.09451h6.69531v19.584q0,6.84083,2.16016,9.792,2.16064,2.95313,7.27246,2.95215,1.0796,0,2.23145-.07226,1.15137-.07106,2.16015-.17969,1.00782-.10841,1.83594-.21631a5.3722,5.3722,0,0,0,1.18848-.25195V70.09451h6.69531Z"/>
        <path class="cls-1" d="M284.22735,102.71023a13.18394,13.18394,0,0,0,6.084-1.07959,3.65243,3.65243,0,0,0,1.98047-3.45606,4.59145,4.59145,0,0,0-1.94434-3.88818,30.86671,30.86671,0,0,0-6.4082-3.23975q-2.15917-.86426-4.13965-1.76416a14.43012,14.43012,0,0,1-3.41992-2.124,9.25213,9.25213,0,0,1-2.30469-2.95215,10.47723,10.47723,0,0,1,2.8086-12.13183q3.67236-2.91577,10.00781-2.916a28.12235,28.12235,0,0,1,3.168.18018q1.58349.18016,2.95214.43164,1.36671.25341,2.41211.54,1.043.28857,1.62012.5039l-1.22363,5.76026a16.95421,16.95421,0,0,0-3.38477-1.188,21.87181,21.87181,0,0,0-5.54394-.61182,10.23853,10.23853,0,0,0-4.89551,1.11572,3.69869,3.69869,0,0,0-2.08789,3.49219,4.75647,4.75647,0,0,0,.46777,2.15967,4.98432,4.98432,0,0,0,1.43946,1.69238,11.864,11.864,0,0,0,2.41211,1.40381q1.43994.6482,3.45605,1.36817,2.66309,1.00854,4.752,1.98a14.88473,14.88473,0,0,1,3.56446,2.26806,8.70174,8.70174,0,0,1,2.26757,3.13184,11.35419,11.35419,0,0,1,.792,4.5,8.92916,8.92916,0,0,1-3.85157,7.84814q-3.85254,2.66455-10.98046,2.66358a28.73227,28.73227,0,0,1-7.77637-.82764q-2.80665-.82691-3.81543-1.26025l1.22363-5.75977q1.15137.43214,3.67188,1.2959A21.18656,21.18656,0,0,0,284.22735,102.71023Z"/>
        <path class="cls-2" d="M340.92705,57.63845V63.6863H325.23076v43.84815h-6.98437V63.6863H302.55108V57.63845Z"/>
        <path class="cls-2" d="M344.41875,88.8865a23.88372,23.88372,0,0,1,1.44043-8.67627,18.12044,18.12044,0,0,1,3.81543-6.15576,15.50593,15.50593,0,0,1,5.47266-3.67188,17.0884,17.0884,0,0,1,6.33593-1.22412q7.56006,0,11.5918,4.71582,4.03125,4.7168,4.03223,14.36426v1.11572a10.407,10.407,0,0,1-.07227,1.26026H351.40313q.43212,5.83153,3.38379,8.85595,2.95165,3.02418,9.21582,3.02393a24.56131,24.56131,0,0,0,5.94043-.61182,21.30015,21.30015,0,0,0,3.63574-1.188l.93554,5.61573a19.88344,19.88344,0,0,1-4.2832,1.36816,30.5183,30.5183,0,0,1-6.94824.71973,22.05778,22.05778,0,0,1-8.46-1.47559,15.77057,15.77057,0,0,1-5.86817-4.06836,16.57034,16.57034,0,0,1-3.41992-6.15576A25.99893,25.99893,0,0,1,344.41875,88.8865Zm25.7041-3.67188a11.24618,11.24618,0,0,0-2.26758-7.45215,7.81105,7.81105,0,0,0-6.44433-2.916,8.83287,8.83287,0,0,0-4.06836.8999,9.59824,9.59824,0,0,0-2.98731,2.33985,10.74042,10.74042,0,0,0-1.9082,3.312,16.32788,16.32788,0,0,0-.90039,3.8164Z"/>
        <path class="cls-2" d="M402.451,108.39822a20.375,20.375,0,0,1-7.95606-1.43994,15.98191,15.98191,0,0,1-5.75976-4.03174,16.71253,16.71253,0,0,1-3.49219-6.15625,25.51526,25.51526,0,0,1-1.15234-7.88379,23.84044,23.84044,0,0,1,1.25976-7.91992,18.68536,18.68536,0,0,1,3.56446-6.228,15.969,15.969,0,0,1,5.65234-4.104,18.28364,18.28364,0,0,1,7.45117-1.47608,29.77793,29.77793,0,0,1,5.04.43213,23.25657,23.25657,0,0,1,4.82422,1.36768l-1.51172,5.688a16.17667,16.17667,0,0,0-3.49219-1.15185,19.7262,19.7262,0,0,0-4.21191-.43213q-5.61621,0-8.60449,3.52832Q391.074,82.11868,391.075,88.8865a21.08507,21.08507,0,0,0,.6836,5.54394,11.42309,11.42309,0,0,0,2.16015,4.31983,9.61541,9.61541,0,0,0,3.78027,2.772,14.43126,14.43126,0,0,0,5.61622.97217,21.24507,21.24507,0,0,0,4.82324-.50391,17.54451,17.54451,0,0,0,3.38379-1.08008l.93652,5.61621a7.01281,7.01281,0,0,1-1.65625.6836,23.33432,23.33432,0,0,1-2.44824.57617q-1.36817.25122-2.916.43213A26.07819,26.07819,0,0,1,402.451,108.39822Z"/>
        <path class="cls-2" d="M419.44219,107.53445V52.81423l6.69629-1.15185V70.81423a23.49953,23.49953,0,0,1,8.208-1.51172,18.99665,18.99665,0,0,1,7.416,1.25977,11.6075,11.6075,0,0,1,4.71582,3.52832,13.6548,13.6548,0,0,1,2.48438,5.436,31.63556,31.63556,0,0,1,.71972,6.98389v21.02393h-6.69629v-19.584a32.0074,32.0074,0,0,0-.46777-5.90381,10.00128,10.00128,0,0,0-1.54785-3.96044,6.13535,6.13535,0,0,0-2.87988-2.19581,12.66418,12.66418,0,0,0-4.46387-.68408,18.04716,18.04716,0,0,0-2.23242.144q-1.15284.145-2.19629.32421-1.04444.18018-1.87207.396a11.16211,11.16211,0,0,0-1.1875.35986v31.104Z"/>
      </g>
    </g>
    <g>
      <path class="cls-2" d="M347.97735,149.12363a3.69209,3.69209,0,0,0,2.17773-.50586,1.67706,1.67706,0,0,0,.68164-1.42969,1.85111,1.85111,0,0,0-.23047-.94629,2.42445,2.42445,0,0,0-.66015-.71484,5.548,5.548,0,0,0-1.04493-.59375q-.61669-.27539-1.4082-.53906-.79248-.28564-1.5293-.627a5.14651,5.14651,0,0,1-1.29785-.84765,3.89508,3.89508,0,0,1-.90234-1.21,3.85053,3.85053,0,0,1-.34082-1.69336,3.97193,3.97193,0,0,1,1.43066-3.24512,5.94259,5.94259,0,0,1,3.89356-1.17773,9.255,9.255,0,0,1,2.541.31933,7.77853,7.77853,0,0,1,1.749.69336l-.8584,2.24414a6.57041,6.57041,0,0,0-1.63867-.63867,7.64088,7.64088,0,0,0-1.83692-.21973,2.90226,2.90226,0,0,0-1.749.46192,1.519,1.519,0,0,0-.627,1.29785,1.70967,1.70967,0,0,0,.209.86914,2.14592,2.14592,0,0,0,.59375.64941,5.23117,5.23117,0,0,0,.90234.52735q.51709.24317,1.13282.46191,1.07813.397,1.9248.80371a5.46438,5.46438,0,0,1,1.43066.96778,3.80215,3.80215,0,0,1,.89063,1.32031,4.89059,4.89059,0,0,1,.30762,1.83691,3.81029,3.81029,0,0,1-1.46289,3.2002,6.88647,6.88647,0,0,1-4.27832,1.13379,11.40491,11.40491,0,0,1-1.72754-.1211,11.1545,11.1545,0,0,1-1.38575-.29687,9.31732,9.31732,0,0,1-1.04492-.36328,6.27474,6.27474,0,0,1-.7041-.34082l.81348-2.2666a9.32826,9.32826,0,0,0,1.60644.66015A7.9387,7.9387,0,0,0,347.97735,149.12363Z"/>
      <path class="cls-2" d="M377.67656,135.9459v2.39746H372.99V151.192H370.1961V138.34336h-4.68555V135.9459Z"/>
      <path class="cls-2" d="M396.55254,151.52207a7.20669,7.20669,0,0,1-2.68457-.45117,4.94974,4.94974,0,0,1-1.8584-1.26563,5.12627,5.12627,0,0,1-1.08887-1.91309,7.88836,7.88836,0,0,1-.35253-2.42089V135.9459h2.79394v9.26171a5.95534,5.95534,0,0,0,.23145,1.77149,3.07455,3.07455,0,0,0,.66015,1.19824,2.61844,2.61844,0,0,0,1.01172.68262,3.68935,3.68935,0,0,0,1.30859.21972,3.779,3.779,0,0,0,1.32032-.21972,2.6094,2.6094,0,0,0,1.02343-.68262,3.08573,3.08573,0,0,0,.65918-1.19824,5.95534,5.95534,0,0,0,.23145-1.77149V135.9459h2.79395v9.52539a7.68244,7.68244,0,0,1-.36329,2.42089,5.271,5.271,0,0,1-1.09961,1.91309,4.92957,4.92957,0,0,1-1.88085,1.26563A7.38322,7.38322,0,0,1,396.55254,151.52207Z"/>
      <path class="cls-2" d="M417.035,151.192V135.9459h9.63574v2.35351h-6.86425v3.89453h6.09472v2.35352h-6.09472V151.192Z"/>
      <path class="cls-2" d="M440.04668,151.192V135.9459h9.63574v2.35351h-6.86425v3.89453h6.09472v2.35352h-6.09472V151.192Z"/>
    </g>
  </g>
</svg>
